<svg xmlns="http://www.w3.org/2000/svg" width="1200" height="800" viewBox="0 0 1200 800" role="img" aria-label="agent → ros2-agent-workflow / run">
  <rect width="1200" height="800" fill="#0d1117"/>
  <rect x="60" y="50" width="1080" height="700" rx="12" fill="#161b22" stroke="#30363d"/>
  <rect x="60" y="50" width="1080" height="40" rx="12" fill="#21262d"/>
  <rect x="60" y="78" width="1080" height="12" fill="#21262d"/>
  <circle cx="88" cy="70" r="6" fill="#f85149"/>
  <circle cx="110" cy="70" r="6" fill="#d29922"/>
  <circle cx="132" cy="70" r="6" fill="#3fb950"/>
  <rect x="160" y="58" width="880" height="24" rx="6" fill="#0d1117" stroke="#30363d"/>
  <text x="176" y="75" font-family="monospace" font-size="13" fill="#8b949e">agent → ros2-agent-workflow / run</text>
  <rect x="104" y="140" width="226" height="84" rx="8" fill="#1c2128" stroke="#30363d"/>
  <text x="122" y="170" font-family="monospace" font-size="12" fill="#8b949e">tasks</text>
  <text x="122" y="202" font-family="Inter, system-ui, sans-serif" font-size="26" font-weight="700" fill="#4493f8">42</text><rect x="354" y="140" width="226" height="84" rx="8" fill="#1c2128" stroke="#30363d"/>
  <text x="372" y="170" font-family="monospace" font-size="12" fill="#8b949e">success</text>
  <text x="372" y="202" font-family="Inter, system-ui, sans-serif" font-size="26" font-weight="700" fill="#4493f8">100%</text><rect x="604" y="140" width="226" height="84" rx="8" fill="#1c2128" stroke="#30363d"/>
  <text x="622" y="170" font-family="monospace" font-size="12" fill="#8b949e">topic hz</text>
  <text x="622" y="202" font-family="Inter, system-ui, sans-serif" font-size="26" font-weight="700" fill="#4493f8">10 Hz</text><rect x="854" y="140" width="226" height="84" rx="8" fill="#1c2128" stroke="#30363d"/>
  <text x="872" y="170" font-family="monospace" font-size="12" fill="#8b949e">nodes</text>
  <text x="872" y="202" font-family="Inter, system-ui, sans-serif" font-size="26" font-weight="700" fill="#4493f8">12</text>
  <rect x="104" y="250" width="780" height="430" rx="8" fill="#161b22" stroke="#30363d"/>
  <text x="124" y="284" font-family="monospace" font-size="13" fill="#8b949e">agent tasks / run</text>
  <rect x="140" y="459.34065934065933" width="56" height="140.65934065934067" rx="4" fill="#4493f8" opacity="0.45"/>
  <text x="168" y="620" text-anchor="middle" font-family="monospace" font-size="12" fill="#8b949e">m1</text><rect x="270" y="381.97802197802196" width="56" height="218.02197802197804" rx="4" fill="#4493f8" opacity="0.5333333333333333"/>
  <text x="298" y="620" text-anchor="middle" font-family="monospace" font-size="12" fill="#8b949e">m2</text><rect x="400" y="396.0439560439561" width="56" height="203.95604395604394" rx="4" fill="#4493f8" opacity="0.6166666666666667"/>
  <text x="428" y="620" text-anchor="middle" font-family="monospace" font-size="12" fill="#8b949e">m3</text><rect x="530" y="318.68131868131866" width="56" height="281.31868131868134" rx="4" fill="#4493f8" opacity="0.7"/>
  <text x="558" y="620" text-anchor="middle" font-family="monospace" font-size="12" fill="#8b949e">m4</text><rect x="660" y="339.7802197802198" width="56" height="260.2197802197802" rx="4" fill="#4493f8" opacity="0.7833333333333333"/>
  <text x="688" y="620" text-anchor="middle" font-family="monospace" font-size="12" fill="#8b949e">m5</text><rect x="790" y="280" width="56" height="320" rx="4" fill="#4493f8" opacity="0.8666666666666667"/>
  <text x="818" y="620" text-anchor="middle" font-family="monospace" font-size="12" fill="#8b949e">m6</text>
  <rect x="908" y="250" width="208" height="430" rx="8" fill="#161b22" stroke="#30363d"/>
  <text x="926" y="284" font-family="monospace" font-size="13" fill="#8b949e">status</text>
  <circle cx="950" cy="320" r="5" fill="#3fb950"/><text x="966" y="325" font-family="monospace" font-size="12" fill="#e6edf3">running</text>
  <circle cx="950" cy="350" r="5" fill="#3fb950"/><text x="966" y="355" font-family="monospace" font-size="12" fill="#e6edf3">connected</text>
  <circle cx="950" cy="380" r="5" fill="#d29922"/><text x="966" y="385" font-family="monospace" font-size="12" fill="#e6edf3">planning</text>
</svg>